<svg width="21" height="21" viewBox="0 0 21 21" fill="none" xmlns="http://www.w3.org/2000/svg">
	<path
		d="M13.677 2.15639C13.7013 2.07742 13.7098 1.99444 13.702 1.91218C13.6942 1.82993 13.6703 1.75001 13.6317 1.67699C13.593 1.60398 13.5403 1.53929 13.4767 1.48663C13.413 1.43397 13.3396 1.39437 13.2606 1.37008C13.1816 1.34579 13.0986 1.3373 13.0164 1.34508C12.9341 1.35287 12.8542 1.37678 12.7812 1.41545C12.7082 1.45411 12.6435 1.50679 12.5908 1.57045C12.5382 1.63412 12.4986 1.70754 12.4743 1.78651L7.44187 18.1418C7.39282 18.3013 7.40914 18.4738 7.48724 18.6212C7.56533 18.7687 7.69881 18.8791 7.85831 18.9282C8.0178 18.9772 8.19025 18.9609 8.33771 18.8828C8.48517 18.8047 8.59557 18.6712 8.64462 18.5117L13.677 2.15639ZM6.60146 5.30039C6.66004 5.35883 6.70652 5.42824 6.73823 5.50467C6.76994 5.58109 6.78627 5.66302 6.78627 5.74576C6.78627 5.8285 6.76994 5.91043 6.73823 5.98686C6.70652 6.06328 6.66004 6.1327 6.60146 6.19113L2.64221 10.1491L6.60146 14.1071C6.71958 14.2252 6.78594 14.3854 6.78594 14.5525C6.78594 14.7195 6.71958 14.8797 6.60146 14.9978C6.48334 15.116 6.32314 15.1823 6.15609 15.1823C5.98905 15.1823 5.82884 15.116 5.71072 14.9978L1.30737 10.5945C1.24878 10.5361 1.20231 10.4666 1.17059 10.3902C1.13888 10.3138 1.12256 10.2319 1.12256 10.1491C1.12256 10.0664 1.13888 9.98445 1.17059 9.90802C1.20231 9.8316 1.24878 9.76218 1.30737 9.70375L5.71072 5.30039C5.76916 5.24181 5.83857 5.19533 5.915 5.16362C5.99142 5.13191 6.07335 5.11558 6.15609 5.11558C6.23883 5.11558 6.32076 5.13191 6.39719 5.16362C6.47361 5.19533 6.54303 5.24181 6.60146 5.30039ZM14.5174 5.30039C14.4589 5.35883 14.4124 5.42824 14.3807 5.50467C14.349 5.58109 14.3326 5.66302 14.3326 5.74576C14.3326 5.8285 14.349 5.91043 14.3807 5.98686C14.4124 6.06328 14.4589 6.1327 14.5174 6.19113L18.4767 10.1491L14.5174 14.1071C14.459 14.1656 14.4126 14.235 14.3809 14.3114C14.3493 14.3879 14.333 14.4698 14.333 14.5525C14.333 14.6352 14.3493 14.7171 14.3809 14.7935C14.4126 14.8699 14.459 14.9394 14.5174 14.9978C14.5759 15.0563 14.6454 15.1027 14.7218 15.1344C14.7982 15.166 14.8801 15.1823 14.9628 15.1823C15.0455 15.1823 15.1274 15.166 15.2038 15.1344C15.2803 15.1027 15.3497 15.0563 15.4082 14.9978L19.8115 10.5945C19.8701 10.5361 19.9166 10.4666 19.9483 10.3902C19.98 10.3138 19.9963 10.2319 19.9963 10.1491C19.9963 10.0664 19.98 9.98445 19.9483 9.90802C19.9166 9.8316 19.8701 9.76218 19.8115 9.70375L15.4082 5.30039C15.3497 5.24181 15.2803 5.19533 15.2039 5.16362C15.1275 5.13191 15.0456 5.11558 14.9628 5.11558C14.8801 5.11558 14.7981 5.13191 14.7217 5.16362C14.6453 5.19533 14.5759 5.24181 14.5174 5.30039Z"
		fill="white" />
</svg>