<svg width="22" height="22" viewBox="0 0 22 22" fill="none" xmlns="http://www.w3.org/2000/svg">
	<g clip-path="url(#clip0_124_3421)">
		<path
			d="M19.8505 10.3699C17.872 6.71214 14.4021 4.49872 10.5624 4.49872C6.72265 4.49872 3.24694 6.71214 1.28597 10.3699L1.12158 10.6458L1.27423 10.9276C3.25281 14.5853 6.72265 16.7988 10.5624 16.7988C14.4021 16.7988 17.8778 14.6147 19.8505 10.9276L20.0032 10.6458L19.8505 10.3699ZM10.5624 15.5952C7.25693 15.5952 4.22155 13.7516 2.4602 10.6458C4.22155 7.53997 7.25693 5.69643 10.5624 5.69643C13.8678 5.69643 16.868 7.54584 18.6587 10.6458C16.868 13.7516 13.862 15.5952 10.5624 15.5952Z"
			fill="white" />
		<path
			d="M10.7326 6.63585C9.93653 6.64166 9.16005 6.88325 8.50121 7.3301C7.84238 7.77695 7.33074 8.40903 7.03093 9.14649C6.73111 9.88396 6.65657 10.6937 6.81671 11.4735C6.97684 12.2533 7.36448 12.9682 7.93066 13.5278C8.49685 14.0875 9.21617 14.4667 9.99779 14.6178C10.7794 14.7688 11.5883 14.6849 12.3222 14.3765C13.0561 14.0681 13.6822 13.5491 14.1213 12.8851C14.5605 12.2212 14.793 11.4419 14.7895 10.6458C14.7872 10.1159 14.6804 9.59169 14.4751 9.10315C14.2698 8.61461 13.9702 8.17138 13.5933 7.79887C13.2164 7.42635 12.7697 7.13187 12.2788 6.93229C11.7879 6.73272 11.2625 6.63198 10.7326 6.63585ZM10.7326 13.5168C10.1703 13.511 9.62222 13.3392 9.15725 13.023C8.69228 12.7067 8.33112 12.2601 8.11913 11.7392C7.90715 11.2184 7.85379 10.6465 7.96576 10.0954C8.07773 9.54437 8.35004 9.03867 8.74848 8.64185C9.14692 8.24503 9.65373 7.97479 10.2053 7.86507C10.7568 7.75535 11.3284 7.81104 11.8484 8.02515C12.3684 8.23926 12.8135 8.60224 13.1279 9.0685C13.4422 9.53476 13.6118 10.0835 13.6153 10.6458C13.6169 11.0243 13.5433 11.3993 13.3988 11.7491C13.2544 12.0989 13.0419 12.4165 12.7738 12.6836C12.5056 12.9507 12.1871 13.1618 11.8367 13.3049C11.4863 13.4479 11.111 13.5199 10.7326 13.5168Z"
			fill="white" />
	</g>
	<defs>
		<clipPath id="clip0_124_3421">
			<rect width="21.1361" height="21.1361" fill="white" transform="translate(0.111816 0.0777588)" />
		</clipPath>
	</defs>
</svg>